<?xml version="1.0" encoding="UTF-8" standalone="no"?>
<!DOCTYPE svg PUBLIC "-//W3C//DTD SVG 1.1//EN"
 "http://www.w3.org/Graphics/SVG/1.1/DTD/svg11.dtd">
<!-- Generated by graphviz version 2.40.1 (20161225.0304)
 -->
<!-- Title: dependencies Pages: 1 -->
<svg width="3508pt" height="360pt"
 viewBox="0.00 0.00 3508.00 360.00" xmlns="http://www.w3.org/2000/svg" xmlns:xlink="http://www.w3.org/1999/xlink">
<g id="graph0" class="graph" transform="scale(1 1) rotate(0) translate(4 356)">
<title>dependencies</title>
<polygon fill="#ffffff" stroke="transparent" points="-4,4 -4,-356 3504,-356 3504,4 -4,4"/>
<text text-anchor="start" x="1729.0091" y="-42.4" font-family="sans-serif" font-weight="bold" font-size="14.00" fill="#000000">Legend</text>
<polygon fill="#ffffb3" stroke="transparent" points="1516,-10 1516,-30 1536,-30 1536,-10 1516,-10"/>
<text text-anchor="start" x="1539.629" y="-15.4" font-family="sans-serif" font-size="14.00" fill="#000000"> &#160;Declarations</text>
<polygon fill="#8dd3c7" stroke="transparent" points="1629,-10 1629,-30 1649,-30 1649,-10 1629,-10"/>
<text text-anchor="start" x="1652.7251" y="-15.4" font-family="sans-serif" font-size="14.00" fill="#000000"> &#160;Module</text>
<polygon fill="#80b1d3" stroke="transparent" points="1715,-10 1715,-30 1735,-30 1735,-10 1715,-10"/>
<text text-anchor="start" x="1738.7812" y="-15.4" font-family="sans-serif" font-size="14.00" fill="#000000"> &#160;Bootstrap</text>
<polygon fill="#fdb462" stroke="transparent" points="1812,-10 1812,-30 1832,-30 1832,-10 1812,-10"/>
<text text-anchor="start" x="1835.6732" y="-15.4" font-family="sans-serif" font-size="14.00" fill="#000000"> &#160;Providers</text>
<polygon fill="#fb8072" stroke="transparent" points="1908,-10 1908,-30 1928,-30 1928,-10 1908,-10"/>
<text text-anchor="start" x="1931.7258" y="-15.4" font-family="sans-serif" font-size="14.00" fill="#000000"> &#160;Exports</text>
<g id="clust1" class="cluster">
<title>cluster_AppModule</title>
<polygon fill="none" stroke="#000000" stroke-dasharray="1,5" points="1960,-146 1960,-344 3317,-344 3317,-146 1960,-146"/>
</g>
<g id="clust2" class="cluster">
<title>cluster_AppModule_declarations</title>
<polygon fill="none" stroke="#000000" points="2557,-154 2557,-206 3309,-206 3309,-154 2557,-154"/>
</g>
<g id="clust8" class="cluster">
<title>cluster_AppModule_imports</title>
<polygon fill="none" stroke="#000000" points="1968,-154 1968,-206 2549,-206 2549,-154 1968,-154"/>
</g>
<g id="clust10" class="cluster">
<title>cluster_AppModule_bootstrap</title>
<polygon fill="none" stroke="#000000" points="2580,-284 2580,-336 2666,-336 2666,-284 2580,-284"/>
</g>
<g id="clust12" class="cluster">
<title>cluster_EmpresaModule</title>
<polygon fill="none" stroke="#000000" stroke-dasharray="1,5" points="8,-70 8,-138 3492,-138 3492,-70 8,-70"/>
</g>
<g id="clust13" class="cluster">
<title>cluster_EmpresaModule_declarations</title>
<polygon fill="none" stroke="#000000" points="1941,-78 1941,-130 3484,-130 3484,-78 1941,-78"/>
</g>
<g id="clust25" class="cluster">
<title>cluster_EmpresaModule_imports</title>
<polygon fill="none" stroke="#000000" points="1359,-78 1359,-130 1933,-130 1933,-78 1359,-78"/>
</g>
<g id="clust28" class="cluster">
<title>cluster_EmpresaModule_providers</title>
<polygon fill="none" stroke="#000000" points="16,-78 16,-130 1351,-130 1351,-78 16,-78"/>
</g>
<!-- AppSiest -->
<g id="node1" class="node">
<title>AppSiest</title>
<polygon fill="#ffffb3" stroke="#000000" points="3300.8304,-198 3233.1696,-198 3233.1696,-162 3300.8304,-162 3300.8304,-198"/>
<text text-anchor="middle" x="3267" y="-175.8" font-family="Times,serif" font-size="14.00" fill="#000000">AppSiest</text>
</g>
<!-- AppModule -->
<g id="node6" class="node">
<title>AppModule</title>
<polygon fill="#8dd3c7" stroke="#000000" points="2664.6571,-263 2661.6571,-267 2640.6571,-267 2637.6571,-263 2581.3429,-263 2581.3429,-227 2664.6571,-227 2664.6571,-263"/>
<text text-anchor="middle" x="2623" y="-240.8" font-family="Times,serif" font-size="14.00" fill="#000000">AppModule</text>
</g>
<!-- AppSiest&#45;&gt;AppModule -->
<g id="edge1" class="edge">
<title>AppSiest&#45;&gt;AppModule</title>
<path fill="none" stroke="#000000" d="M3267,-198.0109C3267,-220.4852 3267,-256 3267,-256 3267,-256 2674.7584,-256 2674.7584,-256"/>
<polygon fill="#000000" stroke="#000000" points="2674.7585,-252.5001 2664.7584,-256 2674.7584,-259.5001 2674.7585,-252.5001"/>
</g>
<!-- MenuLateralComponent -->
<g id="node2" class="node">
<title>MenuLateralComponent</title>
<polygon fill="#ffffb3" stroke="#000000" points="3215.6302,-198 3062.3698,-198 3062.3698,-162 3215.6302,-162 3215.6302,-198"/>
<text text-anchor="middle" x="3139" y="-175.8" font-family="Times,serif" font-size="14.00" fill="#000000">MenuLateralComponent</text>
</g>
<!-- MenuLateralComponent&#45;&gt;AppModule -->
<g id="edge2" class="edge">
<title>MenuLateralComponent&#45;&gt;AppModule</title>
<path fill="none" stroke="#000000" d="M3139,-198.1289C3139,-218.5724 3139,-249 3139,-249 3139,-249 2674.7894,-249 2674.7894,-249"/>
<polygon fill="#000000" stroke="#000000" points="2674.7894,-245.5001 2664.7894,-249 2674.7893,-252.5001 2674.7894,-245.5001"/>
</g>
<!-- MenuSuperiorComponent -->
<g id="node3" class="node">
<title>MenuSuperiorComponent</title>
<polygon fill="#ffffb3" stroke="#000000" points="3044.2007,-198 2881.7993,-198 2881.7993,-162 3044.2007,-162 3044.2007,-198"/>
<text text-anchor="middle" x="2963" y="-175.8" font-family="Times,serif" font-size="14.00" fill="#000000">MenuSuperiorComponent</text>
</g>
<!-- MenuSuperiorComponent&#45;&gt;AppModule -->
<g id="edge3" class="edge">
<title>MenuSuperiorComponent&#45;&gt;AppModule</title>
<path fill="none" stroke="#000000" d="M2963,-198.2667C2963,-216.5552 2963,-242 2963,-242 2963,-242 2674.6907,-242 2674.6907,-242"/>
<polygon fill="#000000" stroke="#000000" points="2674.6907,-238.5001 2664.6907,-242 2674.6906,-245.5001 2674.6907,-238.5001"/>
</g>
<!-- PageNotFoundComponent -->
<g id="node4" class="node">
<title>PageNotFoundComponent</title>
<polygon fill="#ffffb3" stroke="#000000" points="2863.8243,-198 2698.1757,-198 2698.1757,-162 2863.8243,-162 2863.8243,-198"/>
<text text-anchor="middle" x="2781" y="-175.8" font-family="Times,serif" font-size="14.00" fill="#000000">PageNotFoundComponent</text>
</g>
<!-- PageNotFoundComponent&#45;&gt;AppModule -->
<g id="edge4" class="edge">
<title>PageNotFoundComponent&#45;&gt;AppModule</title>
<path fill="none" stroke="#000000" d="M2781,-198.0091C2781,-214.0494 2781,-235 2781,-235 2781,-235 2674.9263,-235 2674.9263,-235"/>
<polygon fill="#000000" stroke="#000000" points="2674.9263,-231.5001 2664.9263,-235 2674.9262,-238.5001 2674.9263,-231.5001"/>
</g>
<!-- HomeComponent -->
<g id="node5" class="node">
<title>HomeComponent</title>
<polygon fill="#ffffb3" stroke="#000000" points="2680.5451,-198 2565.4549,-198 2565.4549,-162 2680.5451,-162 2680.5451,-198"/>
<text text-anchor="middle" x="2623" y="-175.8" font-family="Times,serif" font-size="14.00" fill="#000000">HomeComponent</text>
</g>
<!-- HomeComponent&#45;&gt;AppModule -->
<g id="edge5" class="edge">
<title>HomeComponent&#45;&gt;AppModule</title>
<path fill="none" stroke="#000000" d="M2623,-198.1061C2623,-198.1061 2623,-216.991 2623,-216.991"/>
<polygon fill="#000000" stroke="#000000" points="2619.5001,-216.9909 2623,-226.991 2626.5001,-216.991 2619.5001,-216.9909"/>
</g>
<!-- AppSiest  -->
<g id="node11" class="node">
<title>AppSiest </title>
<polygon fill="#80b1d3" stroke="#000000" points="2658.3298,-328 2587.6702,-328 2587.6702,-292 2658.3298,-292 2658.3298,-328"/>
<text text-anchor="middle" x="2623" y="-305.8" font-family="Times,serif" font-size="14.00" fill="#000000">AppSiest </text>
</g>
<!-- AppModule&#45;&gt;AppSiest  -->
<g id="edge10" class="edge">
<title>AppModule&#45;&gt;AppSiest </title>
<path fill="none" stroke="#000000" stroke-dasharray="1,5" d="M2623,-263.1061C2623,-263.1061 2623,-281.991 2623,-281.991"/>
<polygon fill="#000000" stroke="#000000" points="2619.5001,-281.9909 2623,-291.991 2626.5001,-281.991 2619.5001,-281.9909"/>
</g>
<!-- BrowserModule -->
<g id="node7" class="node">
<title>BrowserModule</title>
<polygon fill="#8dd3c7" stroke="#000000" points="2541.4734,-198 2538.4734,-202 2517.4734,-202 2514.4734,-198 2434.5266,-198 2434.5266,-162 2541.4734,-162 2541.4734,-198"/>
<text text-anchor="middle" x="2488" y="-175.8" font-family="Times,serif" font-size="14.00" fill="#000000">BrowserModule</text>
</g>
<!-- BrowserModule&#45;&gt;AppModule -->
<g id="edge6" class="edge">
<title>BrowserModule&#45;&gt;AppModule</title>
<path fill="none" stroke="#000000" d="M2488,-198.0091C2488,-214.0494 2488,-235 2488,-235 2488,-235 2571.0252,-235 2571.0252,-235"/>
<polygon fill="#000000" stroke="#000000" points="2571.0252,-238.5001 2581.0252,-235 2571.0251,-231.5001 2571.0252,-238.5001"/>
</g>
<!-- RouterModule.forRoot(args) -->
<g id="node8" class="node">
<title>RouterModule.forRoot(args)</title>
<polygon fill="#8dd3c7" stroke="#000000" points="2416.8419,-198 2413.8419,-202 2392.8419,-202 2389.8419,-198 2239.1581,-198 2239.1581,-162 2416.8419,-162 2416.8419,-198"/>
<text text-anchor="middle" x="2328" y="-175.8" font-family="Times,serif" font-size="14.00" fill="#000000">RouterModule.forRoot(args)</text>
</g>
<!-- RouterModule.forRoot(args)&#45;&gt;AppModule -->
<g id="edge7" class="edge">
<title>RouterModule.forRoot(args)&#45;&gt;AppModule</title>
<path fill="none" stroke="#000000" d="M2328,-198.2667C2328,-216.5552 2328,-242 2328,-242 2328,-242 2571.047,-242 2571.047,-242"/>
<polygon fill="#000000" stroke="#000000" points="2571.047,-245.5001 2581.047,-242 2571.0469,-238.5001 2571.047,-245.5001"/>
</g>
<!-- HttpClientModule -->
<g id="node9" class="node">
<title>HttpClientModule</title>
<polygon fill="#8dd3c7" stroke="#000000" points="2221.1611,-198 2218.1611,-202 2197.1611,-202 2194.1611,-198 2102.8389,-198 2102.8389,-162 2221.1611,-162 2221.1611,-198"/>
<text text-anchor="middle" x="2162" y="-175.8" font-family="Times,serif" font-size="14.00" fill="#000000">HttpClientModule</text>
</g>
<!-- HttpClientModule&#45;&gt;AppModule -->
<g id="edge8" class="edge">
<title>HttpClientModule&#45;&gt;AppModule</title>
<path fill="none" stroke="#000000" d="M2162,-198.1289C2162,-218.5724 2162,-249 2162,-249 2162,-249 2571.2763,-249 2571.2763,-249"/>
<polygon fill="#000000" stroke="#000000" points="2571.2763,-252.5001 2581.2763,-249 2571.2762,-245.5001 2571.2763,-252.5001"/>
</g>
<!-- EmpresaModule -->
<g id="node10" class="node">
<title>EmpresaModule</title>
<polygon fill="#8dd3c7" stroke="#000000" points="2084.0284,-198 2081.0284,-202 2060.0284,-202 2057.0284,-198 1975.9716,-198 1975.9716,-162 2084.0284,-162 2084.0284,-198"/>
<text text-anchor="middle" x="2030" y="-175.8" font-family="Times,serif" font-size="14.00" fill="#000000">EmpresaModule</text>
</g>
<!-- EmpresaModule&#45;&gt;AppModule -->
<g id="edge9" class="edge">
<title>EmpresaModule&#45;&gt;AppModule</title>
<path fill="none" stroke="#000000" d="M2030,-198.0109C2030,-220.4852 2030,-256 2030,-256 2030,-256 2571.3014,-256 2571.3014,-256"/>
<polygon fill="#000000" stroke="#000000" points="2571.3014,-259.5001 2581.3014,-256 2571.3014,-252.5001 2571.3014,-259.5001"/>
</g>
<!-- EmpresaListar -->
<g id="node12" class="node">
<title>EmpresaListar</title>
<polygon fill="#ffffb3" stroke="#000000" points="3475.6319,-122 3378.3681,-122 3378.3681,-86 3475.6319,-86 3475.6319,-122"/>
<text text-anchor="middle" x="3427" y="-99.8" font-family="Times,serif" font-size="14.00" fill="#000000">EmpresaListar</text>
</g>
<!-- EmpresaListar&#45;&gt;EmpresaModule -->
<g id="edge11" class="edge">
<title>EmpresaListar&#45;&gt;EmpresaModule</title>
<path fill="none" stroke="#000000" d="M3427,-122.0091C3427,-138.0494 3427,-159 3427,-159 3427,-159 2075.2198,-159 2075.2198,-159 2075.2198,-159 2075.2198,-159.292 2075.2198,-159.292"/>
<polygon fill="#000000" stroke="#000000" points="2071.7201,-151.9198 2075.2198,-161.92 2078.7201,-151.9201 2071.7201,-151.9198"/>
</g>
<!-- MaskInput -->
<g id="node13" class="node">
<title>MaskInput</title>
<polygon fill="#ffffb3" stroke="#000000" points="3360.1558,-122 3283.8442,-122 3283.8442,-86 3360.1558,-86 3360.1558,-122"/>
<text text-anchor="middle" x="3322" y="-99.8" font-family="Times,serif" font-size="14.00" fill="#000000">MaskInput</text>
</g>
<!-- MaskInput&#45;&gt;EmpresaModule -->
<g id="edge12" class="edge">
<title>MaskInput&#45;&gt;EmpresaModule</title>
<path fill="none" stroke="#000000" d="M3292.1687,-122.1243C3292.1687,-136.7832 3292.1687,-155 3292.1687,-155 3292.1687,-155 2066.1758,-155 2066.1758,-155 2066.1758,-155 2066.1758,-155.6831 2066.1758,-155.6831"/>
<polygon fill="#000000" stroke="#000000" points="2062.676,-151.8313 2066.1758,-161.8314 2069.676,-151.8314 2062.676,-151.8313"/>
</g>
<!-- MaskCurrencyDirective -->
<g id="node14" class="node">
<title>MaskCurrencyDirective</title>
<polygon fill="#ffffb3" stroke="#000000" points="3265.7738,-122 3114.2262,-122 3114.2262,-86 3265.7738,-86 3265.7738,-122"/>
<text text-anchor="middle" x="3190" y="-99.8" font-family="Times,serif" font-size="14.00" fill="#000000">MaskCurrencyDirective</text>
</g>
<!-- MaskCurrencyDirective&#45;&gt;EmpresaModule -->
<g id="edge13" class="edge">
<title>MaskCurrencyDirective&#45;&gt;EmpresaModule</title>
<path fill="none" stroke="#000000" d="M3165.089,-122.1467C3165.089,-135.7395 3165.089,-152 3165.089,-152 3165.089,-152 2057.1318,-152 2057.1318,-152 2057.1318,-152 2057.1318,-152.9793 2057.1318,-152.9793"/>
<polygon fill="#000000" stroke="#000000" points="2053.632,-151.793 2057.1318,-161.793 2060.632,-151.7931 2053.632,-151.793"/>
</g>
<!-- CnpjValidatorDirective -->
<g id="node15" class="node">
<title>CnpjValidatorDirective</title>
<polygon fill="#ffffb3" stroke="#000000" points="3096.1783,-122 2947.8217,-122 2947.8217,-86 3096.1783,-86 3096.1783,-122"/>
<text text-anchor="middle" x="3022" y="-99.8" font-family="Times,serif" font-size="14.00" fill="#000000">CnpjValidatorDirective</text>
</g>
<!-- CnpjValidatorDirective&#45;&gt;EmpresaModule -->
<g id="edge14" class="edge">
<title>CnpjValidatorDirective&#45;&gt;EmpresaModule</title>
<path fill="none" stroke="#000000" d="M2996.0056,-122.1505C2996.0056,-134.2708 2996.0056,-148 2996.0056,-148 2996.0056,-148 2048.0879,-148 2048.0879,-148 2048.0879,-148 2048.0879,-151.7566 2048.0879,-151.7566"/>
<polygon fill="#000000" stroke="#000000" points="2044.588,-151.7566 2048.0879,-161.7566 2051.588,-151.7566 2044.588,-151.7566"/>
</g>
<!-- EmpresaSelecionar -->
<g id="node16" class="node">
<title>EmpresaSelecionar</title>
<polygon fill="#ffffb3" stroke="#000000" points="2930.0604,-122 2805.9396,-122 2805.9396,-86 2930.0604,-86 2930.0604,-122"/>
<text text-anchor="middle" x="2868" y="-99.8" font-family="Times,serif" font-size="14.00" fill="#000000">EmpresaSelecionar</text>
</g>
<!-- EmpresaSelecionar&#45;&gt;EmpresaModule -->
<g id="edge15" class="edge">
<title>EmpresaSelecionar&#45;&gt;EmpresaModule</title>
<path fill="none" stroke="#000000" d="M2834.8159,-122.1274C2834.8159,-132.7109 2834.8159,-144 2834.8159,-144 2834.8159,-144 2039.044,-144 2039.044,-144 2039.044,-144 2039.044,-151.5782 2039.044,-151.5782"/>
<polygon fill="#000000" stroke="#000000" points="2035.544,-151.5781 2039.044,-161.5782 2042.544,-151.5782 2035.544,-151.5781"/>
</g>
<!-- EmpresaGestao -->
<g id="node17" class="node">
<title>EmpresaGestao</title>
<polygon fill="#ffffb3" stroke="#000000" points="2787.8487,-122 2684.1513,-122 2684.1513,-86 2787.8487,-86 2787.8487,-122"/>
<text text-anchor="middle" x="2736" y="-99.8" font-family="Times,serif" font-size="14.00" fill="#000000">EmpresaGestao</text>
</g>
<!-- EmpresaGestao&#45;&gt;EmpresaModule -->
<g id="edge16" class="edge">
<title>EmpresaGestao&#45;&gt;EmpresaModule</title>
<path fill="none" stroke="#000000" d="M2691.2069,-122.0664C2691.2069,-131.4587 2691.2069,-141 2691.2069,-141 2691.2069,-141 2030,-141 2030,-141 2030,-141 2030,-151.8701 2030,-151.8701"/>
<polygon fill="#000000" stroke="#000000" points="2026.5001,-151.8701 2030,-161.8701 2033.5001,-151.8701 2026.5001,-151.8701"/>
</g>
<!-- EmpresaSelecionarHome -->
<g id="node18" class="node">
<title>EmpresaSelecionarHome</title>
<polygon fill="#ffffb3" stroke="#000000" points="2666.2724,-122 2507.7276,-122 2507.7276,-86 2666.2724,-86 2666.2724,-122"/>
<text text-anchor="middle" x="2587" y="-99.8" font-family="Times,serif" font-size="14.00" fill="#000000">EmpresaSelecionarHome</text>
</g>
<!-- EmpresaSelecionarHome&#45;&gt;EmpresaModule -->
<g id="edge17" class="edge">
<title>EmpresaSelecionarHome&#45;&gt;EmpresaModule</title>
<path fill="none" stroke="#000000" d="M2524.6753,-122.0449C2524.6753,-129.749 2524.6753,-137 2524.6753,-137 2524.6753,-137 2020.9561,-137 2020.9561,-137 2020.9561,-137 2020.9561,-151.5146 2020.9561,-151.5146"/>
<polygon fill="#000000" stroke="#000000" points="2017.4561,-151.5145 2020.9561,-161.5146 2024.4561,-151.5146 2017.4561,-151.5145"/>
</g>
<!-- EmpresaEditar -->
<g id="node19" class="node">
<title>EmpresaEditar</title>
<polygon fill="#ffffb3" stroke="#000000" points="2489.6868,-122 2390.3132,-122 2390.3132,-86 2489.6868,-86 2489.6868,-122"/>
<text text-anchor="middle" x="2440" y="-99.8" font-family="Times,serif" font-size="14.00" fill="#000000">EmpresaEditar</text>
</g>
<!-- EmpresaEditar&#45;&gt;EmpresaModule -->
<g id="edge18" class="edge">
<title>EmpresaEditar&#45;&gt;EmpresaModule</title>
<path fill="none" stroke="#000000" d="M2403.5387,-122.2015C2403.5387,-128.028 2403.5387,-133 2403.5387,-133 2403.5387,-133 2011.9121,-133 2011.9121,-133 2011.9121,-133 2011.9121,-151.963 2011.9121,-151.963"/>
<polygon fill="#000000" stroke="#000000" points="2008.4122,-151.963 2011.9121,-161.963 2015.4122,-151.963 2008.4122,-151.963"/>
</g>
<!-- EmpresaExcluir -->
<g id="node20" class="node">
<title>EmpresaExcluir</title>
<polygon fill="#ffffb3" stroke="#000000" points="2372.1868,-122 2265.8132,-122 2265.8132,-86 2372.1868,-86 2372.1868,-122"/>
<text text-anchor="middle" x="2319" y="-99.8" font-family="Times,serif" font-size="14.00" fill="#000000">EmpresaExcluir</text>
</g>
<!-- EmpresaExcluir&#45;&gt;EmpresaModule -->
<g id="edge19" class="edge">
<title>EmpresaExcluir&#45;&gt;EmpresaModule</title>
<path fill="none" stroke="#000000" d="M2319,-122.0579C2319,-126.4945 2319,-130 2319,-130 2319,-130 2002.8682,-130 2002.8682,-130 2002.8682,-130 2002.8682,-151.9489 2002.8682,-151.9489"/>
<polygon fill="#000000" stroke="#000000" points="1999.3682,-151.9488 2002.8682,-161.9489 2006.3682,-151.9489 1999.3682,-151.9488"/>
</g>
<!-- EmpresaCadastrar -->
<g id="node21" class="node">
<title>EmpresaCadastrar</title>
<polygon fill="#ffffb3" stroke="#000000" points="2248.115,-122 2129.885,-122 2129.885,-86 2248.115,-86 2248.115,-122"/>
<text text-anchor="middle" x="2189" y="-99.8" font-family="Times,serif" font-size="14.00" fill="#000000">EmpresaCadastrar</text>
</g>
<!-- EmpresaCadastrar&#45;&gt;EmpresaModule -->
<g id="edge20" class="edge">
<title>EmpresaCadastrar&#45;&gt;EmpresaModule</title>
<path fill="none" stroke="#000000" d="M2175.5116,-122.1679C2175.5116,-124.4478 2175.5116,-126 2175.5116,-126 2175.5116,-126 1993.8242,-126 1993.8242,-126 1993.8242,-126 1993.8242,-151.7181 1993.8242,-151.7181"/>
<polygon fill="#000000" stroke="#000000" points="1990.3243,-151.718 1993.8242,-161.7181 1997.3243,-151.7181 1990.3243,-151.718"/>
</g>
<!-- EntidadeGestoraCadastrar -->
<g id="node22" class="node">
<title>EntidadeGestoraCadastrar</title>
<polygon fill="#ffffb3" stroke="#000000" points="2111.4314,-122 1948.5686,-122 1948.5686,-86 2111.4314,-86 2111.4314,-122"/>
<text text-anchor="middle" x="2030" y="-99.8" font-family="Times,serif" font-size="14.00" fill="#000000">EntidadeGestoraCadastrar</text>
</g>
<!-- EntidadeGestoraCadastrar&#45;&gt;EmpresaModule -->
<g id="edge21" class="edge">
<title>EntidadeGestoraCadastrar&#45;&gt;EmpresaModule</title>
<path fill="none" stroke="#000000" d="M1984.7803,-122.0109C1984.7803,-122.0109 1984.7803,-151.855 1984.7803,-151.855"/>
<polygon fill="#000000" stroke="#000000" points="1981.2803,-151.8549 1984.7803,-161.855 1988.2803,-151.855 1981.2803,-151.8549"/>
</g>
<!-- CommonModule -->
<g id="node23" class="node">
<title>CommonModule</title>
<polygon fill="#8dd3c7" stroke="#000000" points="1924.6681,-122 1921.6681,-126 1900.6681,-126 1897.6681,-122 1813.3319,-122 1813.3319,-86 1924.6681,-86 1924.6681,-122"/>
<text text-anchor="middle" x="1869" y="-99.8" font-family="Times,serif" font-size="14.00" fill="#000000">CommonModule</text>
</g>
<!-- CommonModule&#45;&gt;EmpresaModule -->
<g id="edge22" class="edge">
<title>CommonModule&#45;&gt;EmpresaModule</title>
<path fill="none" stroke="#000000" d="M1869,-122.2667C1869,-140.5552 1869,-166 1869,-166 1869,-166 1965.9414,-166 1965.9414,-166"/>
<polygon fill="#000000" stroke="#000000" points="1965.9415,-169.5001 1975.9414,-166 1965.9414,-162.5001 1965.9415,-169.5001"/>
</g>
<!-- FormsModule -->
<g id="node24" class="node">
<title>FormsModule</title>
<polygon fill="#8dd3c7" stroke="#000000" points="1795.8288,-122 1792.8288,-126 1771.8288,-126 1768.8288,-122 1700.1712,-122 1700.1712,-86 1795.8288,-86 1795.8288,-122"/>
<text text-anchor="middle" x="1748" y="-99.8" font-family="Times,serif" font-size="14.00" fill="#000000">FormsModule</text>
</g>
<!-- FormsModule&#45;&gt;EmpresaModule -->
<g id="edge23" class="edge">
<title>FormsModule&#45;&gt;EmpresaModule</title>
<path fill="none" stroke="#000000" d="M1732.112,-122.2228C1732.112,-142.3652 1732.112,-172 1732.112,-172 1732.112,-172 1965.7091,-172 1965.7091,-172"/>
<polygon fill="#000000" stroke="#000000" points="1965.7092,-175.5001 1975.7091,-172 1965.7091,-168.5001 1965.7092,-175.5001"/>
</g>
<!-- FormsModule&#45;&gt;EmpresaModule -->
<g id="edge25" class="edge">
<title>FormsModule&#45;&gt;EmpresaModule</title>
<path fill="none" stroke="#000000" d="M1763.888,-122.1061C1763.888,-141.3391 1763.888,-169 1763.888,-169 1763.888,-169 1965.8275,-169 1965.8275,-169"/>
<polygon fill="#000000" stroke="#000000" points="1965.8276,-172.5001 1975.8275,-169 1965.8275,-165.5001 1965.8276,-172.5001"/>
</g>
<!-- EmpresaRoutingModule -->
<g id="node25" class="node">
<title>EmpresaRoutingModule</title>
<polygon fill="#8dd3c7" stroke="#000000" points="1682.6456,-122 1679.6456,-126 1658.6456,-126 1655.6456,-122 1529.3544,-122 1529.3544,-86 1682.6456,-86 1682.6456,-122"/>
<text text-anchor="middle" x="1606" y="-99.8" font-family="Times,serif" font-size="14.00" fill="#000000">EmpresaRoutingModule</text>
</g>
<!-- EmpresaRoutingModule&#45;&gt;EmpresaModule -->
<g id="edge24" class="edge">
<title>EmpresaRoutingModule&#45;&gt;EmpresaModule</title>
<path fill="none" stroke="#000000" d="M1606,-122.1686C1606,-143.498 1606,-176 1606,-176 1606,-176 1965.8694,-176 1965.8694,-176"/>
<polygon fill="#000000" stroke="#000000" points="1965.8695,-179.5001 1975.8694,-176 1965.8694,-172.5001 1965.8695,-179.5001"/>
</g>
<!-- ReactiveFormsModule -->
<g id="node26" class="node">
<title>ReactiveFormsModule</title>
<polygon fill="#8dd3c7" stroke="#000000" points="1511.3047,-122 1508.3047,-126 1487.3047,-126 1484.3047,-122 1366.6953,-122 1366.6953,-86 1511.3047,-86 1511.3047,-122"/>
<text text-anchor="middle" x="1439" y="-99.8" font-family="Times,serif" font-size="14.00" fill="#000000">ReactiveFormsModule</text>
</g>
<!-- ReactiveFormsModule&#45;&gt;EmpresaModule -->
<g id="edge26" class="edge">
<title>ReactiveFormsModule&#45;&gt;EmpresaModule</title>
<path fill="none" stroke="#000000" d="M1439,-122.1554C1439,-144.3519 1439,-179 1439,-179 1439,-179 1965.723,-179 1965.723,-179"/>
<polygon fill="#000000" stroke="#000000" points="1965.723,-182.5001 1975.723,-179 1965.7229,-175.5001 1965.723,-182.5001"/>
</g>
<!-- EmpresaService -->
<g id="node27" class="node">
<title>EmpresaService</title>
<ellipse fill="#fdb462" stroke="#000000" cx="1269" cy="-104" rx="73.5522" ry="18"/>
<text text-anchor="middle" x="1269" y="-99.8" font-family="Times,serif" font-size="14.00" fill="#000000">EmpresaService</text>
</g>
<!-- EmpresaService&#45;&gt;EmpresaModule -->
<g id="edge27" class="edge">
<title>EmpresaService&#45;&gt;EmpresaModule</title>
<path fill="none" stroke="#000000" d="M1269,-122.0908C1269,-145.1328 1269,-182 1269,-182 1269,-182 1965.8808,-182 1965.8808,-182"/>
<polygon fill="#000000" stroke="#000000" points="1965.8809,-185.5001 1975.8808,-182 1965.8808,-178.5001 1965.8809,-185.5001"/>
</g>
<!-- EntidadeGestoraService -->
<g id="node28" class="node">
<title>EntidadeGestoraService</title>
<ellipse fill="#fdb462" stroke="#000000" cx="1073" cy="-104" rx="104.1898" ry="18"/>
<text text-anchor="middle" x="1073" y="-99.8" font-family="Times,serif" font-size="14.00" fill="#000000">EntidadeGestoraService</text>
</g>
<!-- EntidadeGestoraService&#45;&gt;EmpresaModule -->
<g id="edge28" class="edge">
<title>EntidadeGestoraService&#45;&gt;EmpresaModule</title>
<path fill="none" stroke="#000000" d="M1073,-122.3802C1073,-146.2785 1073,-185 1073,-185 1073,-185 1965.8055,-185 1965.8055,-185"/>
<polygon fill="#000000" stroke="#000000" points="1965.8056,-188.5001 1975.8055,-185 1965.8055,-181.5001 1965.8056,-188.5001"/>
</g>
<!-- ServerRequest -->
<g id="node29" class="node">
<title>ServerRequest</title>
<ellipse fill="#fdb462" stroke="#000000" cx="883" cy="-104" rx="67.1927" ry="18"/>
<text text-anchor="middle" x="883" y="-99.8" font-family="Times,serif" font-size="14.00" fill="#000000">ServerRequest</text>
</g>
<!-- ServerRequest&#45;&gt;EmpresaModule -->
<g id="edge29" class="edge">
<title>ServerRequest&#45;&gt;EmpresaModule</title>
<path fill="none" stroke="#000000" d="M883,-122.0263C883,-146.9773 883,-189 883,-189 883,-189 1965.8334,-189 1965.8334,-189"/>
<polygon fill="#000000" stroke="#000000" points="1965.8335,-192.5001 1975.8334,-189 1965.8334,-185.5001 1965.8335,-192.5001"/>
</g>
<!-- TipoGestaoService -->
<g id="node30" class="node">
<title>TipoGestaoService</title>
<ellipse fill="#fdb462" stroke="#000000" cx="713" cy="-104" rx="85.0889" ry="18"/>
<text text-anchor="middle" x="713" y="-99.8" font-family="Times,serif" font-size="14.00" fill="#000000">TipoGestaoService</text>
</g>
<!-- TipoGestaoService&#45;&gt;EmpresaModule -->
<g id="edge30" class="edge">
<title>TipoGestaoService&#45;&gt;EmpresaModule</title>
<path fill="none" stroke="#000000" d="M713,-122.2337C713,-148.0094 713,-192 713,-192 713,-192 1965.9167,-192 1965.9167,-192"/>
<polygon fill="#000000" stroke="#000000" points="1965.9168,-195.5001 1975.9167,-192 1965.9167,-188.5001 1965.9168,-195.5001"/>
</g>
<!-- { provide: NG_VALUE_ACCESSOR, useExisting: MaskInput, multi: &#160;} -->
<g id="node31" class="node">
<title>{ provide: NG_VALUE_ACCESSOR, useExisting: MaskInput, multi: &#160;}</title>
<ellipse fill="#fdb462" stroke="#000000" cx="317" cy="-104" rx="293.1757" ry="18"/>
<text text-anchor="middle" x="317" y="-99.8" font-family="Times,serif" font-size="14.00" fill="#000000">{ provide: NG_VALUE_ACCESSOR, useExisting: MaskInput, multi: &#160;}</text>
</g>
<!-- { provide: NG_VALUE_ACCESSOR, useExisting: MaskInput, multi: &#160;}&#45;&gt;EmpresaModule -->
<g id="edge31" class="edge">
<title>{ provide: NG_VALUE_ACCESSOR, useExisting: MaskInput, multi: &#160;}&#45;&gt;EmpresaModule</title>
<path fill="none" stroke="#000000" d="M317,-122.4152C317,-149.0057 317,-195 317,-195 317,-195 1965.9041,-195 1965.9041,-195"/>
<polygon fill="#000000" stroke="#000000" points="1965.9041,-198.5001 1975.9041,-195 1965.9041,-191.5001 1965.9041,-198.5001"/>
</g>
</g>
</svg>
