<?xml version="1.0" encoding="utf-8"?>
<!-- Generator: Adobe Illustrator 21.0.2, SVG Export Plug-In . SVG Version: 6.00 Build 0)  -->
<svg version="1.1"
	 id="svg2" inkscape:version="0.48.4 r9939" sodipodi:docname="tty.svg" xmlns:cc="http://creativecommons.org/ns#" xmlns:dc="http://purl.org/dc/elements/1.1/" xmlns:inkscape="http://www.inkscape.org/namespaces/inkscape" xmlns:rdf="http://www.w3.org/1999/02/22-rdf-syntax-ns#" xmlns:sodipodi="http://sodipodi.sourceforge.net/DTD/sodipodi-0.dtd" xmlns:svg="http://www.w3.org/2000/svg"
	 xmlns="http://www.w3.org/2000/svg" xmlns:xlink="http://www.w3.org/1999/xlink" x="0px" y="0px" viewBox="0 0 377.4 94.3"
	 style="enable-background:new 0 0 377.4 94.3;" xml:space="preserve">
<style type="text/css">
	.st0{fill:#6B6B6B;}
</style>
<sodipodi:namedview  bordercolor="#666666" borderopacity="1" fit-margin-bottom="0" fit-margin-left="0" fit-margin-right="0" fit-margin-top="0" gridtolerance="10" guidetolerance="10" id="namedview6" inkscape:current-layer="svg2" inkscape:cx="202.31824" inkscape:cy="52.686619" inkscape:pageopacity="0" inkscape:pageshadow="2" inkscape:window-height="1013" inkscape:window-maximized="1" inkscape:window-width="1680" inkscape:window-x="0" inkscape:window-y="0" inkscape:zoom="1" objecttolerance="10" pagecolor="#ffffff" showgrid="false">
	</sodipodi:namedview>
<path id="path4" inkscape:connector-curvature="0" class="st0" d="M94.3,47.2c0,14.2-4.7,23.6-14.2,33c-9.4,9.4-21.2,14.2-33,14.2
	c-14.2,0-23.6-4.7-33-14.2C4.7,70.8,0,59,0,47.2s4.7-23.6,14.2-33C23.6,4.7,35.4,0,47.2,0s23.6,4.7,33,14.2S94.3,35.4,94.3,47.2z
	 M235.9,47.2c0,14.2-4.7,23.6-14.2,33c-9.4,9.4-21.2,14.2-33,14.2c-14.2,0-23.6-4.7-33-14.2s-14.2-21.2-14.2-33s4.7-23.6,14.2-33
	c9.4-9.4,21.2-14.2,33-14.2s23.6,4.7,33,14.2C231.1,23.6,235.9,35.4,235.9,47.2L235.9,47.2z M377.4,47.2c0,14.2-4.7,23.6-14.2,33
	c-9.4,9.4-21.2,14.2-33,14.2c-14.2,0-23.6-4.7-33-14.2S283,59,283,47.2s4.7-23.6,14.2-33S318.4,0,330.2,0c11.8,0,23.6,4.7,33,14.2
	S377.4,35.4,377.4,47.2L377.4,47.2z"/>
</svg>
