<?xml version="1.0" encoding="UTF-8" standalone="no"?>
<!DOCTYPE svg PUBLIC "-//W3C//DTD SVG 1.1//EN"
 "http://www.w3.org/Graphics/SVG/1.1/DTD/svg11.dtd">
<!-- Generated by graphviz version 2.40.1 (20161225.0304)
 -->
<!-- Title: dependencies Pages: 1 -->
<svg width="1381pt" height="284pt"
 viewBox="0.00 0.00 1381.00 284.00" xmlns="http://www.w3.org/2000/svg" xmlns:xlink="http://www.w3.org/1999/xlink">
<g id="graph0" class="graph" transform="scale(1 1) rotate(0) translate(4 280)">
<title>dependencies</title>
<polygon fill="#ffffff" stroke="transparent" points="-4,4 -4,-280 1377,-280 1377,4 -4,4"/>
<text text-anchor="start" x="665.5091" y="-42.4" font-family="sans-serif" font-weight="bold" font-size="14.00" fill="#000000">Legend</text>
<polygon fill="#ffffb3" stroke="transparent" points="452.5,-10 452.5,-30 472.5,-30 472.5,-10 452.5,-10"/>
<text text-anchor="start" x="476.129" y="-15.4" font-family="sans-serif" font-size="14.00" fill="#000000"> &#160;Declarations</text>
<polygon fill="#8dd3c7" stroke="transparent" points="565.5,-10 565.5,-30 585.5,-30 585.5,-10 565.5,-10"/>
<text text-anchor="start" x="589.2251" y="-15.4" font-family="sans-serif" font-size="14.00" fill="#000000"> &#160;Module</text>
<polygon fill="#80b1d3" stroke="transparent" points="651.5,-10 651.5,-30 671.5,-30 671.5,-10 651.5,-10"/>
<text text-anchor="start" x="675.2812" y="-15.4" font-family="sans-serif" font-size="14.00" fill="#000000"> &#160;Bootstrap</text>
<polygon fill="#fdb462" stroke="transparent" points="748.5,-10 748.5,-30 768.5,-30 768.5,-10 748.5,-10"/>
<text text-anchor="start" x="772.1732" y="-15.4" font-family="sans-serif" font-size="14.00" fill="#000000"> &#160;Providers</text>
<polygon fill="#fb8072" stroke="transparent" points="844.5,-10 844.5,-30 864.5,-30 864.5,-10 844.5,-10"/>
<text text-anchor="start" x="868.2258" y="-15.4" font-family="sans-serif" font-size="14.00" fill="#000000"> &#160;Exports</text>
<g id="clust1" class="cluster">
<title>cluster_AppModule</title>
<polygon fill="none" stroke="#000000" stroke-dasharray="1,5" points="8,-70 8,-268 1365,-268 1365,-70 8,-70"/>
</g>
<g id="clust2" class="cluster">
<title>cluster_AppModule_declarations</title>
<polygon fill="none" stroke="#000000" points="605,-78 605,-130 1357,-130 1357,-78 605,-78"/>
</g>
<g id="clust8" class="cluster">
<title>cluster_AppModule_imports</title>
<polygon fill="none" stroke="#000000" points="16,-78 16,-130 597,-130 597,-78 16,-78"/>
</g>
<g id="clust10" class="cluster">
<title>cluster_AppModule_bootstrap</title>
<polygon fill="none" stroke="#000000" points="628,-208 628,-260 714,-260 714,-208 628,-208"/>
</g>
<!-- AppSiest -->
<g id="node1" class="node">
<title>AppSiest</title>
<polygon fill="#ffffb3" stroke="#000000" points="1348.8304,-122 1281.1696,-122 1281.1696,-86 1348.8304,-86 1348.8304,-122"/>
<text text-anchor="middle" x="1315" y="-99.8" font-family="Times,serif" font-size="14.00" fill="#000000">AppSiest</text>
</g>
<!-- AppModule -->
<g id="node6" class="node">
<title>AppModule</title>
<polygon fill="#8dd3c7" stroke="#000000" points="712.6571,-187 709.6571,-191 688.6571,-191 685.6571,-187 629.3429,-187 629.3429,-151 712.6571,-151 712.6571,-187"/>
<text text-anchor="middle" x="671" y="-164.8" font-family="Times,serif" font-size="14.00" fill="#000000">AppModule</text>
</g>
<!-- AppSiest&#45;&gt;AppModule -->
<g id="edge1" class="edge">
<title>AppSiest&#45;&gt;AppModule</title>
<path fill="none" stroke="#000000" d="M1315,-122.0109C1315,-144.4852 1315,-180 1315,-180 1315,-180 722.7584,-180 722.7584,-180"/>
<polygon fill="#000000" stroke="#000000" points="722.7585,-176.5001 712.7584,-180 722.7584,-183.5001 722.7585,-176.5001"/>
</g>
<!-- MenuLateralComponent -->
<g id="node2" class="node">
<title>MenuLateralComponent</title>
<polygon fill="#ffffb3" stroke="#000000" points="1263.6302,-122 1110.3698,-122 1110.3698,-86 1263.6302,-86 1263.6302,-122"/>
<text text-anchor="middle" x="1187" y="-99.8" font-family="Times,serif" font-size="14.00" fill="#000000">MenuLateralComponent</text>
</g>
<!-- MenuLateralComponent&#45;&gt;AppModule -->
<g id="edge2" class="edge">
<title>MenuLateralComponent&#45;&gt;AppModule</title>
<path fill="none" stroke="#000000" d="M1187,-122.1289C1187,-142.5724 1187,-173 1187,-173 1187,-173 722.7894,-173 722.7894,-173"/>
<polygon fill="#000000" stroke="#000000" points="722.7894,-169.5001 712.7894,-173 722.7893,-176.5001 722.7894,-169.5001"/>
</g>
<!-- MenuSuperiorComponent -->
<g id="node3" class="node">
<title>MenuSuperiorComponent</title>
<polygon fill="#ffffb3" stroke="#000000" points="1092.2007,-122 929.7993,-122 929.7993,-86 1092.2007,-86 1092.2007,-122"/>
<text text-anchor="middle" x="1011" y="-99.8" font-family="Times,serif" font-size="14.00" fill="#000000">MenuSuperiorComponent</text>
</g>
<!-- MenuSuperiorComponent&#45;&gt;AppModule -->
<g id="edge3" class="edge">
<title>MenuSuperiorComponent&#45;&gt;AppModule</title>
<path fill="none" stroke="#000000" d="M1011,-122.2667C1011,-140.5552 1011,-166 1011,-166 1011,-166 722.6907,-166 722.6907,-166"/>
<polygon fill="#000000" stroke="#000000" points="722.6907,-162.5001 712.6907,-166 722.6906,-169.5001 722.6907,-162.5001"/>
</g>
<!-- PageNotFoundComponent -->
<g id="node4" class="node">
<title>PageNotFoundComponent</title>
<polygon fill="#ffffb3" stroke="#000000" points="911.8243,-122 746.1757,-122 746.1757,-86 911.8243,-86 911.8243,-122"/>
<text text-anchor="middle" x="829" y="-99.8" font-family="Times,serif" font-size="14.00" fill="#000000">PageNotFoundComponent</text>
</g>
<!-- PageNotFoundComponent&#45;&gt;AppModule -->
<g id="edge4" class="edge">
<title>PageNotFoundComponent&#45;&gt;AppModule</title>
<path fill="none" stroke="#000000" d="M829,-122.0091C829,-138.0494 829,-159 829,-159 829,-159 722.9263,-159 722.9263,-159"/>
<polygon fill="#000000" stroke="#000000" points="722.9263,-155.5001 712.9263,-159 722.9262,-162.5001 722.9263,-155.5001"/>
</g>
<!-- HomeComponent -->
<g id="node5" class="node">
<title>HomeComponent</title>
<polygon fill="#ffffb3" stroke="#000000" points="728.5451,-122 613.4549,-122 613.4549,-86 728.5451,-86 728.5451,-122"/>
<text text-anchor="middle" x="671" y="-99.8" font-family="Times,serif" font-size="14.00" fill="#000000">HomeComponent</text>
</g>
<!-- HomeComponent&#45;&gt;AppModule -->
<g id="edge5" class="edge">
<title>HomeComponent&#45;&gt;AppModule</title>
<path fill="none" stroke="#000000" d="M671,-122.1061C671,-122.1061 671,-140.991 671,-140.991"/>
<polygon fill="#000000" stroke="#000000" points="667.5001,-140.9909 671,-150.991 674.5001,-140.991 667.5001,-140.9909"/>
</g>
<!-- AppSiest  -->
<g id="node11" class="node">
<title>AppSiest </title>
<polygon fill="#80b1d3" stroke="#000000" points="706.3298,-252 635.6702,-252 635.6702,-216 706.3298,-216 706.3298,-252"/>
<text text-anchor="middle" x="671" y="-229.8" font-family="Times,serif" font-size="14.00" fill="#000000">AppSiest </text>
</g>
<!-- AppModule&#45;&gt;AppSiest  -->
<g id="edge10" class="edge">
<title>AppModule&#45;&gt;AppSiest </title>
<path fill="none" stroke="#000000" stroke-dasharray="1,5" d="M671,-187.1061C671,-187.1061 671,-205.991 671,-205.991"/>
<polygon fill="#000000" stroke="#000000" points="667.5001,-205.9909 671,-215.991 674.5001,-205.991 667.5001,-205.9909"/>
</g>
<!-- BrowserModule -->
<g id="node7" class="node">
<title>BrowserModule</title>
<polygon fill="#8dd3c7" stroke="#000000" points="589.4734,-122 586.4734,-126 565.4734,-126 562.4734,-122 482.5266,-122 482.5266,-86 589.4734,-86 589.4734,-122"/>
<text text-anchor="middle" x="536" y="-99.8" font-family="Times,serif" font-size="14.00" fill="#000000">BrowserModule</text>
</g>
<!-- BrowserModule&#45;&gt;AppModule -->
<g id="edge6" class="edge">
<title>BrowserModule&#45;&gt;AppModule</title>
<path fill="none" stroke="#000000" d="M536,-122.0091C536,-138.0494 536,-159 536,-159 536,-159 619.0252,-159 619.0252,-159"/>
<polygon fill="#000000" stroke="#000000" points="619.0252,-162.5001 629.0252,-159 619.0251,-155.5001 619.0252,-162.5001"/>
</g>
<!-- RouterModule.forRoot(args) -->
<g id="node8" class="node">
<title>RouterModule.forRoot(args)</title>
<polygon fill="#8dd3c7" stroke="#000000" points="464.8419,-122 461.8419,-126 440.8419,-126 437.8419,-122 287.1581,-122 287.1581,-86 464.8419,-86 464.8419,-122"/>
<text text-anchor="middle" x="376" y="-99.8" font-family="Times,serif" font-size="14.00" fill="#000000">RouterModule.forRoot(args)</text>
</g>
<!-- RouterModule.forRoot(args)&#45;&gt;AppModule -->
<g id="edge7" class="edge">
<title>RouterModule.forRoot(args)&#45;&gt;AppModule</title>
<path fill="none" stroke="#000000" d="M376,-122.2667C376,-140.5552 376,-166 376,-166 376,-166 619.047,-166 619.047,-166"/>
<polygon fill="#000000" stroke="#000000" points="619.047,-169.5001 629.047,-166 619.0469,-162.5001 619.047,-169.5001"/>
</g>
<!-- HttpClientModule -->
<g id="node9" class="node">
<title>HttpClientModule</title>
<polygon fill="#8dd3c7" stroke="#000000" points="269.1611,-122 266.1611,-126 245.1611,-126 242.1611,-122 150.8389,-122 150.8389,-86 269.1611,-86 269.1611,-122"/>
<text text-anchor="middle" x="210" y="-99.8" font-family="Times,serif" font-size="14.00" fill="#000000">HttpClientModule</text>
</g>
<!-- HttpClientModule&#45;&gt;AppModule -->
<g id="edge8" class="edge">
<title>HttpClientModule&#45;&gt;AppModule</title>
<path fill="none" stroke="#000000" d="M210,-122.1289C210,-142.5724 210,-173 210,-173 210,-173 619.2763,-173 619.2763,-173"/>
<polygon fill="#000000" stroke="#000000" points="619.2763,-176.5001 629.2763,-173 619.2762,-169.5001 619.2763,-176.5001"/>
</g>
<!-- EmpresaModule -->
<g id="node10" class="node">
<title>EmpresaModule</title>
<polygon fill="#8dd3c7" stroke="#000000" points="132.0284,-122 129.0284,-126 108.0284,-126 105.0284,-122 23.9716,-122 23.9716,-86 132.0284,-86 132.0284,-122"/>
<text text-anchor="middle" x="78" y="-99.8" font-family="Times,serif" font-size="14.00" fill="#000000">EmpresaModule</text>
</g>
<!-- EmpresaModule&#45;&gt;AppModule -->
<g id="edge9" class="edge">
<title>EmpresaModule&#45;&gt;AppModule</title>
<path fill="none" stroke="#000000" d="M78,-122.0109C78,-144.4852 78,-180 78,-180 78,-180 619.3014,-180 619.3014,-180"/>
<polygon fill="#000000" stroke="#000000" points="619.3014,-183.5001 629.3014,-180 619.3014,-176.5001 619.3014,-183.5001"/>
</g>
</g>
</svg>
