<?xml version="1.0" encoding="UTF-8" standalone="no"?>
<!DOCTYPE svg PUBLIC "-//W3C//DTD SVG 1.1//EN"
 "http://www.w3.org/Graphics/SVG/1.1/DTD/svg11.dtd">
<!-- Generated by graphviz version 2.40.1 (20161225.0304)
 -->
<!-- Title: dependencies Pages: 1 -->
<svg width="3508pt" height="211pt"
 viewBox="0.00 0.00 3508.00 211.00" xmlns="http://www.w3.org/2000/svg" xmlns:xlink="http://www.w3.org/1999/xlink">
<g id="graph0" class="graph" transform="scale(1 1) rotate(0) translate(4 207)">
<title>dependencies</title>
<polygon fill="#ffffff" stroke="transparent" points="-4,4 -4,-207 3504,-207 3504,4 -4,4"/>
<text text-anchor="start" x="1729.0091" y="-42.4" font-family="sans-serif" font-weight="bold" font-size="14.00" fill="#000000">Legend</text>
<polygon fill="#ffffb3" stroke="transparent" points="1516,-10 1516,-30 1536,-30 1536,-10 1516,-10"/>
<text text-anchor="start" x="1539.629" y="-15.4" font-family="sans-serif" font-size="14.00" fill="#000000"> &#160;Declarations</text>
<polygon fill="#8dd3c7" stroke="transparent" points="1629,-10 1629,-30 1649,-30 1649,-10 1629,-10"/>
<text text-anchor="start" x="1652.7251" y="-15.4" font-family="sans-serif" font-size="14.00" fill="#000000"> &#160;Module</text>
<polygon fill="#80b1d3" stroke="transparent" points="1715,-10 1715,-30 1735,-30 1735,-10 1715,-10"/>
<text text-anchor="start" x="1738.7812" y="-15.4" font-family="sans-serif" font-size="14.00" fill="#000000"> &#160;Bootstrap</text>
<polygon fill="#fdb462" stroke="transparent" points="1812,-10 1812,-30 1832,-30 1832,-10 1812,-10"/>
<text text-anchor="start" x="1835.6732" y="-15.4" font-family="sans-serif" font-size="14.00" fill="#000000"> &#160;Providers</text>
<polygon fill="#fb8072" stroke="transparent" points="1908,-10 1908,-30 1928,-30 1928,-10 1908,-10"/>
<text text-anchor="start" x="1931.7258" y="-15.4" font-family="sans-serif" font-size="14.00" fill="#000000"> &#160;Exports</text>
<g id="clust1" class="cluster">
<title>cluster_EmpresaModule</title>
<polygon fill="none" stroke="#000000" stroke-dasharray="1,5" points="8,-70 8,-195 3492,-195 3492,-70 8,-70"/>
</g>
<g id="clust2" class="cluster">
<title>cluster_EmpresaModule_declarations</title>
<polygon fill="none" stroke="#000000" points="1941,-78 1941,-130 3484,-130 3484,-78 1941,-78"/>
</g>
<g id="clust14" class="cluster">
<title>cluster_EmpresaModule_imports</title>
<polygon fill="none" stroke="#000000" points="1359,-78 1359,-130 1933,-130 1933,-78 1359,-78"/>
</g>
<g id="clust17" class="cluster">
<title>cluster_EmpresaModule_providers</title>
<polygon fill="none" stroke="#000000" points="16,-78 16,-130 1351,-130 1351,-78 16,-78"/>
</g>
<!-- EmpresaListar -->
<g id="node1" class="node">
<title>EmpresaListar</title>
<polygon fill="#ffffb3" stroke="#000000" points="3475.6319,-122 3378.3681,-122 3378.3681,-86 3475.6319,-86 3475.6319,-122"/>
<text text-anchor="middle" x="3427" y="-99.8" font-family="Times,serif" font-size="14.00" fill="#000000">EmpresaListar</text>
</g>
<!-- EmpresaModule -->
<g id="node12" class="node">
<title>EmpresaModule</title>
<polygon fill="#8dd3c7" stroke="#000000" points="2084.0284,-187 2081.0284,-191 2060.0284,-191 2057.0284,-187 1975.9716,-187 1975.9716,-151 2084.0284,-151 2084.0284,-187"/>
<text text-anchor="middle" x="2030" y="-164.8" font-family="Times,serif" font-size="14.00" fill="#000000">EmpresaModule</text>
</g>
<!-- EmpresaListar&#45;&gt;EmpresaModule -->
<g id="edge1" class="edge">
<title>EmpresaListar&#45;&gt;EmpresaModule</title>
<path fill="none" stroke="#000000" d="M3427,-122.1532C3427,-145.7566 3427,-184 3427,-184 3427,-184 2094.3353,-184 2094.3353,-184"/>
<polygon fill="#000000" stroke="#000000" points="2094.3353,-180.5001 2084.3353,-184 2094.3353,-187.5001 2094.3353,-180.5001"/>
</g>
<!-- MaskInput -->
<g id="node2" class="node">
<title>MaskInput</title>
<polygon fill="#ffffb3" stroke="#000000" points="3360.1558,-122 3283.8442,-122 3283.8442,-86 3360.1558,-86 3360.1558,-122"/>
<text text-anchor="middle" x="3322" y="-99.8" font-family="Times,serif" font-size="14.00" fill="#000000">MaskInput</text>
</g>
<!-- MaskInput&#45;&gt;EmpresaModule -->
<g id="edge2" class="edge">
<title>MaskInput&#45;&gt;EmpresaModule</title>
<path fill="none" stroke="#000000" d="M3322,-122.2479C3322,-145.0179 3322,-181 3322,-181 3322,-181 2094.2799,-181 2094.2799,-181"/>
<polygon fill="#000000" stroke="#000000" points="2094.2799,-177.5001 2084.2799,-181 2094.2798,-184.5001 2094.2799,-177.5001"/>
</g>
<!-- MaskCurrencyDirective -->
<g id="node3" class="node">
<title>MaskCurrencyDirective</title>
<polygon fill="#ffffb3" stroke="#000000" points="3265.7738,-122 3114.2262,-122 3114.2262,-86 3265.7738,-86 3265.7738,-122"/>
<text text-anchor="middle" x="3190" y="-99.8" font-family="Times,serif" font-size="14.00" fill="#000000">MaskCurrencyDirective</text>
</g>
<!-- MaskCurrencyDirective&#45;&gt;EmpresaModule -->
<g id="edge3" class="edge">
<title>MaskCurrencyDirective&#45;&gt;EmpresaModule</title>
<path fill="none" stroke="#000000" d="M3190,-122.2921C3190,-144.2057 3190,-178 3190,-178 3190,-178 2094.3933,-178 2094.3933,-178"/>
<polygon fill="#000000" stroke="#000000" points="2094.3934,-174.5001 2084.3933,-178 2094.3933,-181.5001 2094.3934,-174.5001"/>
</g>
<!-- CnpjValidatorDirective -->
<g id="node4" class="node">
<title>CnpjValidatorDirective</title>
<polygon fill="#ffffb3" stroke="#000000" points="3096.1783,-122 2947.8217,-122 2947.8217,-86 3096.1783,-86 3096.1783,-122"/>
<text text-anchor="middle" x="3022" y="-99.8" font-family="Times,serif" font-size="14.00" fill="#000000">CnpjValidatorDirective</text>
</g>
<!-- CnpjValidatorDirective&#45;&gt;EmpresaModule -->
<g id="edge4" class="edge">
<title>CnpjValidatorDirective&#45;&gt;EmpresaModule</title>
<path fill="none" stroke="#000000" d="M3022,-122.0267C3022,-142.7672 3022,-174 3022,-174 3022,-174 2094.0387,-174 2094.0387,-174"/>
<polygon fill="#000000" stroke="#000000" points="2094.0387,-170.5001 2084.0387,-174 2094.0387,-177.5001 2094.0387,-170.5001"/>
</g>
<!-- EmpresaSelecionar -->
<g id="node5" class="node">
<title>EmpresaSelecionar</title>
<polygon fill="#ffffb3" stroke="#000000" points="2930.0604,-122 2805.9396,-122 2805.9396,-86 2930.0604,-86 2930.0604,-122"/>
<text text-anchor="middle" x="2868" y="-99.8" font-family="Times,serif" font-size="14.00" fill="#000000">EmpresaSelecionar</text>
</g>
<!-- EmpresaSelecionar&#45;&gt;EmpresaModule -->
<g id="edge5" class="edge">
<title>EmpresaSelecionar&#45;&gt;EmpresaModule</title>
<path fill="none" stroke="#000000" d="M2868,-122.308C2868,-142.1455 2868,-171 2868,-171 2868,-171 2094.3378,-171 2094.3378,-171"/>
<polygon fill="#000000" stroke="#000000" points="2094.3379,-167.5001 2084.3378,-171 2094.3378,-174.5001 2094.3379,-167.5001"/>
</g>
<!-- EmpresaGestao -->
<g id="node6" class="node">
<title>EmpresaGestao</title>
<polygon fill="#ffffb3" stroke="#000000" points="2787.8487,-122 2684.1513,-122 2684.1513,-86 2787.8487,-86 2787.8487,-122"/>
<text text-anchor="middle" x="2736" y="-99.8" font-family="Times,serif" font-size="14.00" fill="#000000">EmpresaGestao</text>
</g>
<!-- EmpresaGestao&#45;&gt;EmpresaModule -->
<g id="edge6" class="edge">
<title>EmpresaGestao&#45;&gt;EmpresaModule</title>
<path fill="none" stroke="#000000" d="M2736,-122.1686C2736,-141.0898 2736,-168 2736,-168 2736,-168 2094.2264,-168 2094.2264,-168"/>
<polygon fill="#000000" stroke="#000000" points="2094.2264,-164.5001 2084.2264,-168 2094.2263,-171.5001 2094.2264,-164.5001"/>
</g>
<!-- EmpresaSelecionarHome -->
<g id="node7" class="node">
<title>EmpresaSelecionarHome</title>
<polygon fill="#ffffb3" stroke="#000000" points="2666.2724,-122 2507.7276,-122 2507.7276,-86 2666.2724,-86 2666.2724,-122"/>
<text text-anchor="middle" x="2587" y="-99.8" font-family="Times,serif" font-size="14.00" fill="#000000">EmpresaSelecionarHome</text>
</g>
<!-- EmpresaSelecionarHome&#45;&gt;EmpresaModule -->
<g id="edge7" class="edge">
<title>EmpresaSelecionarHome&#45;&gt;EmpresaModule</title>
<path fill="none" stroke="#000000" d="M2587,-122.302C2587,-140.2699 2587,-165 2587,-165 2587,-165 2094.1674,-165 2094.1674,-165"/>
<polygon fill="#000000" stroke="#000000" points="2094.1674,-161.5001 2084.1674,-165 2094.1674,-168.5001 2094.1674,-161.5001"/>
</g>
<!-- EmpresaEditar -->
<g id="node8" class="node">
<title>EmpresaEditar</title>
<polygon fill="#ffffb3" stroke="#000000" points="2489.6868,-122 2390.3132,-122 2390.3132,-86 2489.6868,-86 2489.6868,-122"/>
<text text-anchor="middle" x="2440" y="-99.8" font-family="Times,serif" font-size="14.00" fill="#000000">EmpresaEditar</text>
</g>
<!-- EmpresaEditar&#45;&gt;EmpresaModule -->
<g id="edge8" class="edge">
<title>EmpresaEditar&#45;&gt;EmpresaModule</title>
<path fill="none" stroke="#000000" d="M2440,-122.0352C2440,-138.7344 2440,-161 2440,-161 2440,-161 2094.4448,-161 2094.4448,-161"/>
<polygon fill="#000000" stroke="#000000" points="2094.4449,-157.5001 2084.4448,-161 2094.4448,-164.5001 2094.4449,-157.5001"/>
</g>
<!-- EmpresaExcluir -->
<g id="node9" class="node">
<title>EmpresaExcluir</title>
<polygon fill="#ffffb3" stroke="#000000" points="2372.1868,-122 2265.8132,-122 2265.8132,-86 2372.1868,-86 2372.1868,-122"/>
<text text-anchor="middle" x="2319" y="-99.8" font-family="Times,serif" font-size="14.00" fill="#000000">EmpresaExcluir</text>
</g>
<!-- EmpresaExcluir&#45;&gt;EmpresaModule -->
<g id="edge9" class="edge">
<title>EmpresaExcluir&#45;&gt;EmpresaModule</title>
<path fill="none" stroke="#000000" d="M2319,-122.2819C2319,-137.9478 2319,-158 2319,-158 2319,-158 2094.3587,-158 2094.3587,-158"/>
<polygon fill="#000000" stroke="#000000" points="2094.3587,-154.5001 2084.3587,-158 2094.3587,-161.5001 2094.3587,-154.5001"/>
</g>
<!-- EmpresaCadastrar -->
<g id="node10" class="node">
<title>EmpresaCadastrar</title>
<polygon fill="#ffffb3" stroke="#000000" points="2248.115,-122 2129.885,-122 2129.885,-86 2248.115,-86 2248.115,-122"/>
<text text-anchor="middle" x="2189" y="-99.8" font-family="Times,serif" font-size="14.00" fill="#000000">EmpresaCadastrar</text>
</g>
<!-- EmpresaCadastrar&#45;&gt;EmpresaModule -->
<g id="edge10" class="edge">
<title>EmpresaCadastrar&#45;&gt;EmpresaModule</title>
<path fill="none" stroke="#000000" d="M2189,-122.1243C2189,-136.7832 2189,-155 2189,-155 2189,-155 2094.2741,-155 2094.2741,-155"/>
<polygon fill="#000000" stroke="#000000" points="2094.2741,-151.5001 2084.2741,-155 2094.274,-158.5001 2094.2741,-151.5001"/>
</g>
<!-- EntidadeGestoraCadastrar -->
<g id="node11" class="node">
<title>EntidadeGestoraCadastrar</title>
<polygon fill="#ffffb3" stroke="#000000" points="2111.4314,-122 1948.5686,-122 1948.5686,-86 2111.4314,-86 2111.4314,-122"/>
<text text-anchor="middle" x="2030" y="-99.8" font-family="Times,serif" font-size="14.00" fill="#000000">EntidadeGestoraCadastrar</text>
</g>
<!-- EntidadeGestoraCadastrar&#45;&gt;EmpresaModule -->
<g id="edge11" class="edge">
<title>EntidadeGestoraCadastrar&#45;&gt;EmpresaModule</title>
<path fill="none" stroke="#000000" d="M2030,-122.1061C2030,-122.1061 2030,-140.991 2030,-140.991"/>
<polygon fill="#000000" stroke="#000000" points="2026.5001,-140.9909 2030,-150.991 2033.5001,-140.991 2026.5001,-140.9909"/>
</g>
<!-- CommonModule -->
<g id="node13" class="node">
<title>CommonModule</title>
<polygon fill="#8dd3c7" stroke="#000000" points="1924.6681,-122 1921.6681,-126 1900.6681,-126 1897.6681,-122 1813.3319,-122 1813.3319,-86 1924.6681,-86 1924.6681,-122"/>
<text text-anchor="middle" x="1869" y="-99.8" font-family="Times,serif" font-size="14.00" fill="#000000">CommonModule</text>
</g>
<!-- CommonModule&#45;&gt;EmpresaModule -->
<g id="edge12" class="edge">
<title>CommonModule&#45;&gt;EmpresaModule</title>
<path fill="none" stroke="#000000" d="M1869,-122.1243C1869,-136.7832 1869,-155 1869,-155 1869,-155 1965.9414,-155 1965.9414,-155"/>
<polygon fill="#000000" stroke="#000000" points="1965.9415,-158.5001 1975.9414,-155 1965.9414,-151.5001 1965.9415,-158.5001"/>
</g>
<!-- FormsModule -->
<g id="node14" class="node">
<title>FormsModule</title>
<polygon fill="#8dd3c7" stroke="#000000" points="1795.8288,-122 1792.8288,-126 1771.8288,-126 1768.8288,-122 1700.1712,-122 1700.1712,-86 1795.8288,-86 1795.8288,-122"/>
<text text-anchor="middle" x="1748" y="-99.8" font-family="Times,serif" font-size="14.00" fill="#000000">FormsModule</text>
</g>
<!-- FormsModule&#45;&gt;EmpresaModule -->
<g id="edge13" class="edge">
<title>FormsModule&#45;&gt;EmpresaModule</title>
<path fill="none" stroke="#000000" d="M1732.112,-122.0352C1732.112,-138.7344 1732.112,-161 1732.112,-161 1732.112,-161 1965.7091,-161 1965.7091,-161"/>
<polygon fill="#000000" stroke="#000000" points="1965.7092,-164.5001 1975.7091,-161 1965.7091,-157.5001 1965.7092,-164.5001"/>
</g>
<!-- FormsModule&#45;&gt;EmpresaModule -->
<g id="edge15" class="edge">
<title>FormsModule&#45;&gt;EmpresaModule</title>
<path fill="none" stroke="#000000" d="M1763.888,-122.2819C1763.888,-137.9478 1763.888,-158 1763.888,-158 1763.888,-158 1965.8275,-158 1965.8275,-158"/>
<polygon fill="#000000" stroke="#000000" points="1965.8276,-161.5001 1975.8275,-158 1965.8275,-154.5001 1965.8276,-161.5001"/>
</g>
<!-- EmpresaRoutingModule -->
<g id="node15" class="node">
<title>EmpresaRoutingModule</title>
<polygon fill="#8dd3c7" stroke="#000000" points="1682.6456,-122 1679.6456,-126 1658.6456,-126 1655.6456,-122 1529.3544,-122 1529.3544,-86 1682.6456,-86 1682.6456,-122"/>
<text text-anchor="middle" x="1606" y="-99.8" font-family="Times,serif" font-size="14.00" fill="#000000">EmpresaRoutingModule</text>
</g>
<!-- EmpresaRoutingModule&#45;&gt;EmpresaModule -->
<g id="edge14" class="edge">
<title>EmpresaRoutingModule&#45;&gt;EmpresaModule</title>
<path fill="none" stroke="#000000" d="M1606,-122.302C1606,-140.2699 1606,-165 1606,-165 1606,-165 1965.8694,-165 1965.8694,-165"/>
<polygon fill="#000000" stroke="#000000" points="1965.8695,-168.5001 1975.8694,-165 1965.8694,-161.5001 1965.8695,-168.5001"/>
</g>
<!-- ReactiveFormsModule -->
<g id="node16" class="node">
<title>ReactiveFormsModule</title>
<polygon fill="#8dd3c7" stroke="#000000" points="1511.3047,-122 1508.3047,-126 1487.3047,-126 1484.3047,-122 1366.6953,-122 1366.6953,-86 1511.3047,-86 1511.3047,-122"/>
<text text-anchor="middle" x="1439" y="-99.8" font-family="Times,serif" font-size="14.00" fill="#000000">ReactiveFormsModule</text>
</g>
<!-- ReactiveFormsModule&#45;&gt;EmpresaModule -->
<g id="edge16" class="edge">
<title>ReactiveFormsModule&#45;&gt;EmpresaModule</title>
<path fill="none" stroke="#000000" d="M1439,-122.1686C1439,-141.0898 1439,-168 1439,-168 1439,-168 1965.723,-168 1965.723,-168"/>
<polygon fill="#000000" stroke="#000000" points="1965.723,-171.5001 1975.723,-168 1965.7229,-164.5001 1965.723,-171.5001"/>
</g>
<!-- EmpresaService -->
<g id="node17" class="node">
<title>EmpresaService</title>
<ellipse fill="#fdb462" stroke="#000000" cx="1269" cy="-104" rx="73.5522" ry="18"/>
<text text-anchor="middle" x="1269" y="-99.8" font-family="Times,serif" font-size="14.00" fill="#000000">EmpresaService</text>
</g>
<!-- EmpresaService&#45;&gt;EmpresaModule -->
<g id="edge17" class="edge">
<title>EmpresaService&#45;&gt;EmpresaModule</title>
<path fill="none" stroke="#000000" d="M1269,-122.308C1269,-142.1455 1269,-171 1269,-171 1269,-171 1965.8808,-171 1965.8808,-171"/>
<polygon fill="#000000" stroke="#000000" points="1965.8809,-174.5001 1975.8808,-171 1965.8808,-167.5001 1965.8809,-174.5001"/>
</g>
<!-- EntidadeGestoraService -->
<g id="node18" class="node">
<title>EntidadeGestoraService</title>
<ellipse fill="#fdb462" stroke="#000000" cx="1073" cy="-104" rx="104.1898" ry="18"/>
<text text-anchor="middle" x="1073" y="-99.8" font-family="Times,serif" font-size="14.00" fill="#000000">EntidadeGestoraService</text>
</g>
<!-- EntidadeGestoraService&#45;&gt;EmpresaModule -->
<g id="edge18" class="edge">
<title>EntidadeGestoraService&#45;&gt;EmpresaModule</title>
<path fill="none" stroke="#000000" d="M1073,-122.0267C1073,-142.7672 1073,-174 1073,-174 1073,-174 1965.8055,-174 1965.8055,-174"/>
<polygon fill="#000000" stroke="#000000" points="1965.8056,-177.5001 1975.8055,-174 1965.8055,-170.5001 1965.8056,-177.5001"/>
</g>
<!-- ServerRequest -->
<g id="node19" class="node">
<title>ServerRequest</title>
<ellipse fill="#fdb462" stroke="#000000" cx="883" cy="-104" rx="67.1927" ry="18"/>
<text text-anchor="middle" x="883" y="-99.8" font-family="Times,serif" font-size="14.00" fill="#000000">ServerRequest</text>
</g>
<!-- ServerRequest&#45;&gt;EmpresaModule -->
<g id="edge19" class="edge">
<title>ServerRequest&#45;&gt;EmpresaModule</title>
<path fill="none" stroke="#000000" d="M883,-122.2921C883,-144.2057 883,-178 883,-178 883,-178 1965.8334,-178 1965.8334,-178"/>
<polygon fill="#000000" stroke="#000000" points="1965.8335,-181.5001 1975.8334,-178 1965.8334,-174.5001 1965.8335,-181.5001"/>
</g>
<!-- TipoGestaoService -->
<g id="node20" class="node">
<title>TipoGestaoService</title>
<ellipse fill="#fdb462" stroke="#000000" cx="713" cy="-104" rx="85.0889" ry="18"/>
<text text-anchor="middle" x="713" y="-99.8" font-family="Times,serif" font-size="14.00" fill="#000000">TipoGestaoService</text>
</g>
<!-- TipoGestaoService&#45;&gt;EmpresaModule -->
<g id="edge20" class="edge">
<title>TipoGestaoService&#45;&gt;EmpresaModule</title>
<path fill="none" stroke="#000000" d="M713,-122.2479C713,-145.0179 713,-181 713,-181 713,-181 1965.9167,-181 1965.9167,-181"/>
<polygon fill="#000000" stroke="#000000" points="1965.9168,-184.5001 1975.9167,-181 1965.9167,-177.5001 1965.9168,-184.5001"/>
</g>
<!-- { provide: NG_VALUE_ACCESSOR, useExisting: MaskInput, multi: &#160;} -->
<g id="node21" class="node">
<title>{ provide: NG_VALUE_ACCESSOR, useExisting: MaskInput, multi: &#160;}</title>
<ellipse fill="#fdb462" stroke="#000000" cx="317" cy="-104" rx="293.1757" ry="18"/>
<text text-anchor="middle" x="317" y="-99.8" font-family="Times,serif" font-size="14.00" fill="#000000">{ provide: NG_VALUE_ACCESSOR, useExisting: MaskInput, multi: &#160;}</text>
</g>
<!-- { provide: NG_VALUE_ACCESSOR, useExisting: MaskInput, multi: &#160;}&#45;&gt;EmpresaModule -->
<g id="edge21" class="edge">
<title>{ provide: NG_VALUE_ACCESSOR, useExisting: MaskInput, multi: &#160;}&#45;&gt;EmpresaModule</title>
<path fill="none" stroke="#000000" d="M317,-122.1532C317,-145.7566 317,-184 317,-184 317,-184 1965.9041,-184 1965.9041,-184"/>
<polygon fill="#000000" stroke="#000000" points="1965.9041,-187.5001 1975.9041,-184 1965.9041,-180.5001 1965.9041,-187.5001"/>
</g>
</g>
</svg>
